<svg width="56" height="56" viewBox="0 0 56 56" fill="none" xmlns="http://www.w3.org/2000/svg">
<rect width="56" height="56" rx="12" fill="#5570F1"/>
<path opacity="0.4" d="M32.8843 21.1148H29.9413C29.2081 21.1197 28.512 20.7936 28.0474 20.2275L27.0782 18.8876C26.6214 18.3166 25.9253 17.9889 25.1932 18.0003H23.1126C19.3782 18.0003 18 20.192 18 23.9188V27.9474C17.9954 28.3904 37.9956 28.3898 37.9969 27.9474V26.7761C38.0147 23.0492 36.6721 21.1148 32.8843 21.1148Z" fill="white"/>
<path fill-rule="evenodd" clip-rule="evenodd" d="M36.8321 22.5435C37.1521 22.9175 37.3993 23.3479 37.5612 23.8124C37.8798 24.767 38.0273 25.7703 37.9969 26.7761V32.0291C37.9956 32.4716 37.963 32.9134 37.8991 33.3512C37.7775 34.124 37.5057 34.8655 37.0989 35.5341C36.9119 35.8571 36.6849 36.1552 36.4231 36.4214C35.2383 37.5089 33.665 38.0749 32.0574 37.992H23.9306C22.3205 38.0743 20.7446 37.5085 19.556 36.4214C19.2974 36.1547 19.0734 35.8566 18.8891 35.5341C18.4848 34.866 18.2187 34.1237 18.1067 33.3512C18.0355 32.9141 17.9998 32.472 18 32.0291V26.7761C17.9998 26.3373 18.0236 25.8989 18.0711 25.4628C18.0811 25.3863 18.0961 25.311 18.111 25.2365C18.1357 25.1123 18.16 24.9903 18.16 24.8683C18.2503 24.342 18.415 23.8311 18.6491 23.3509C19.3426 21.8691 20.7652 21.1148 23.0948 21.1148H32.8754C34.1802 21.0139 35.4753 21.4067 36.5032 22.2151C36.6215 22.3155 36.7316 22.4253 36.8321 22.5435ZM22.9703 31.5411H33.0355H33.0533C33.2741 31.5507 33.4896 31.4716 33.6517 31.3216C33.8137 31.1715 33.9088 30.963 33.9157 30.7425C33.9282 30.5487 33.8644 30.3576 33.7379 30.2101C33.5924 30.0118 33.3618 29.8934 33.1155 29.8906H22.9703C22.5136 29.8906 22.1434 30.2601 22.1434 30.7159C22.1434 31.1716 22.5136 31.5411 22.9703 31.5411Z" fill="white"/>
</svg>
