<svg width="21" height="22" viewBox="0 0 21 22" fill="none" xmlns="http://www.w3.org/2000/svg">
<path fill-rule="evenodd" clip-rule="evenodd" d="M14.5136 20.5H6.16579C3.09943 20.5 0.74703 19.3925 1.41522 14.9348L2.19325 8.8936C2.60515 6.66934 4.02392 5.81808 5.26877 5.81808H15.4473C16.7104 5.81808 18.0468 6.73342 18.5228 8.8936L19.3008 14.9348C19.8683 18.889 17.58 20.5 14.5136 20.5Z" stroke="#53545C" stroke-width="1.5" stroke-linecap="round" stroke-linejoin="round"/>
<path d="M14.651 5.5984C14.651 3.21233 12.7167 1.27804 10.3306 1.27804V1.27804C9.18162 1.27317 8.078 1.7262 7.26381 2.53695C6.44963 3.34771 5.99193 4.44939 5.99194 5.5984H5.99194" stroke="#53545C" stroke-width="1.5" stroke-linecap="round" stroke-linejoin="round"/>
<path d="M13.2962 10.1018H13.2505" stroke="#53545C" stroke-width="1.5" stroke-linecap="round" stroke-linejoin="round"/>
<path d="M7.46566 10.1018H7.41989" stroke="#53545C" stroke-width="1.5" stroke-linecap="round" stroke-linejoin="round"/>
</svg>
