<svg width="56" height="56" viewBox="0 0 56 56" fill="none" xmlns="http://www.w3.org/2000/svg">
<path fill-rule="evenodd" clip-rule="evenodd" d="M19 22.5C19 19.8748 19.0281 19 22.5 19C25.9719 19 26 19.8748 26 22.5C26 25.1252 26.0111 26 22.5 26C18.9889 26 19 25.1252 19 22.5Z" stroke="#53545C" stroke-width="1.5" stroke-linecap="round" stroke-linejoin="round"/>
<path fill-rule="evenodd" clip-rule="evenodd" d="M30 22.5C30 19.8748 30.0281 19 33.5 19C36.9719 19 37 19.8748 37 22.5C37 25.1252 37.0111 26 33.5 26C29.9889 26 30 25.1252 30 22.5Z" stroke="#53545C" stroke-width="1.5" stroke-linecap="round" stroke-linejoin="round"/>
<path fill-rule="evenodd" clip-rule="evenodd" d="M19 33.5C19 30.8748 19.0281 30 22.5 30C25.9719 30 26 30.8748 26 33.5C26 36.1252 26.0111 37 22.5 37C18.9889 37 19 36.1252 19 33.5Z" stroke="#53545C" stroke-width="1.5" stroke-linecap="round" stroke-linejoin="round"/>
<path fill-rule="evenodd" clip-rule="evenodd" d="M30 33.5C30 30.8748 30.0281 30 33.5 30C36.9719 30 37 30.8748 37 33.5C37 36.1252 37.0111 37 33.5 37C29.9889 37 30 36.1252 30 33.5Z" stroke="#53545C" stroke-width="1.5" stroke-linecap="round" stroke-linejoin="round"/>
</svg>
