<svg width="32" height="32" viewBox="0 0 32 32" fill="none" xmlns="http://www.w3.org/2000/svg">
<rect width="32" height="32" rx="8" fill="#FFF2E2"/>
<path d="M22.104 13.8902C22.104 13.8902 21.6515 19.5027 21.389 21.8668C21.264 22.996 20.5665 23.6577 19.424 23.6785C17.2499 23.7177 15.0732 23.7202 12.8999 23.6743C11.8007 23.6518 11.1149 22.9818 10.9924 21.8727C10.7282 19.4877 10.2782 13.8902 10.2782 13.8902" stroke="#130F26" stroke-width="1.5" stroke-linecap="round" stroke-linejoin="round"/>
<path d="M23.2568 11.1997H9.12512" stroke="#130F26" stroke-width="1.5" stroke-linecap="round" stroke-linejoin="round"/>
<path d="M20.5337 11.1998C19.8796 11.1998 19.3162 10.7373 19.1879 10.0964L18.9854 9.08308C18.8604 8.61558 18.4371 8.29225 17.9546 8.29225H14.4271C13.9446 8.29225 13.5212 8.61558 13.3962 9.08308L13.1937 10.0964C13.0654 10.7373 12.5021 11.1998 11.8479 11.1998" stroke="#130F26" stroke-width="1.5" stroke-linecap="round" stroke-linejoin="round"/>
</svg>
